<?xml version="1.0" standalone="no"?><svg xmlns="http://www.w3.org/2000/svg" viewBox="0 0 1440 320"><path fill="#2b2b2b" fill-opacity="1" d="M0,256L40,224C80,192,160,128,240,122.7C320,117,400,171,480,202.7C560,235,640,245,720,256C800,267,880,277,960,277.3C1040,277,1120,267,1200,245.3C1280,224,1360,192,1400,176L1440,160L1440,320L1400,320C1360,320,1280,320,1200,320C1120,320,1040,320,960,320C880,320,800,320,720,320C640,320,560,320,480,320C400,320,320,320,240,320C160,320,80,320,40,320L0,320Z"></path></svg>